<mxfile host="65bd71144e">
    <diagram id="rHnlHZxSZorAvg65PaTP" name="Page-1">
        <mxGraphModel dx="1844" dy="1150" grid="1" gridSize="10" guides="1" tooltips="1" connect="1" arrows="1" fold="1" page="1" pageScale="1" pageWidth="827" pageHeight="1169" math="0" shadow="0">
            <root>
                <mxCell id="0"/>
                <mxCell id="1" parent="0"/>
                <mxCell id="1xD4JVcIePEV0LcMQXdf-18" value="" style="rounded=0;orthogonalLoop=1;jettySize=auto;html=1;endArrow=none;endFill=0;sketch=0;sourcePerimeterSpacing=0;targetPerimeterSpacing=0;exitX=1;exitY=0.5;exitDx=0;exitDy=0;" edge="1" target="1xD4JVcIePEV0LcMQXdf-20" parent="1" source="ZUIKlt6inFAYDPj5CZig-14">
                    <mxGeometry relative="1" as="geometry">
                        <mxPoint x="482" y="650" as="sourcePoint"/>
                        <Array as="points">
                            <mxPoint x="482" y="655"/>
                        </Array>
                    </mxGeometry>
                </mxCell>
                <mxCell id="1xD4JVcIePEV0LcMQXdf-19" value="" style="rounded=0;orthogonalLoop=1;jettySize=auto;html=1;endArrow=halfCircle;endFill=0;entryX=0.5;entryY=0.5;endSize=6;strokeWidth=1;sketch=0;exitX=1;exitY=0.5;exitDx=0;exitDy=0;" edge="1" target="1xD4JVcIePEV0LcMQXdf-20" parent="1" source="ZUIKlt6inFAYDPj5CZig-13">
                    <mxGeometry relative="1" as="geometry">
                        <mxPoint x="480" y="820" as="sourcePoint"/>
                        <Array as="points">
                            <mxPoint x="482" y="725"/>
                            <mxPoint x="481.5" y="695"/>
                        </Array>
                    </mxGeometry>
                </mxCell>
                <mxCell id="1xD4JVcIePEV0LcMQXdf-20" value="" style="ellipse;whiteSpace=wrap;html=1;align=center;aspect=fixed;resizable=0;points=[];outlineConnect=0;sketch=0;rotation=90;" vertex="1" parent="1">
                    <mxGeometry x="476.5" y="685" width="10" height="10" as="geometry"/>
                </mxCell>
                <mxCell id="WmHbjX1R-hgoIFUFlE3h-6" value="&lt;b&gt;Предусловия&lt;/b&gt;:&lt;br&gt;Вход:&lt;br&gt;- станция отъезда&lt;br&gt;- станция назначения&lt;br&gt;- дата поездки" style="text;html=1;strokeColor=#666666;fillColor=#f5f5f5;align=left;verticalAlign=top;whiteSpace=wrap;rounded=0;fontColor=#333333;" parent="1" vertex="1">
                    <mxGeometry x="77.5" y="25" width="130" height="90" as="geometry"/>
                </mxCell>
                <mxCell id="WmHbjX1R-hgoIFUFlE3h-7" value="&lt;b&gt;Постусловия&lt;/b&gt;:&lt;br&gt;Выход:&lt;br&gt;- электронный билет с данными&lt;br&gt;" style="text;html=1;strokeColor=#666666;fillColor=#f5f5f5;align=left;verticalAlign=top;whiteSpace=wrap;rounded=0;fontColor=#333333;" parent="1" vertex="1">
                    <mxGeometry x="290" y="35" width="130" height="70" as="geometry"/>
                </mxCell>
                <mxCell id="WmHbjX1R-hgoIFUFlE3h-8" value="&lt;b&gt;Инварианты&lt;/b&gt;:&lt;br&gt;Исключения:&lt;br&gt;- просрочка оплаты при резервировании билета (сжатые сроки оплаты, деньги не поступили)" style="text;html=1;strokeColor=#666666;fillColor=#f5f5f5;align=left;verticalAlign=top;whiteSpace=wrap;rounded=0;fontColor=#333333;" parent="1" vertex="1">
                    <mxGeometry x="530" y="20" width="160" height="100" as="geometry"/>
                </mxCell>
                <mxCell id="ZUIKlt6inFAYDPj5CZig-1" value="Module 1&#10;Проверка наличия &#10;билетов" style="shape=module;align=left;spacingLeft=20;align=center;verticalAlign=top;fontStyle=1;fillColor=#666666;strokeColor=#d6b656;fontSize=13;" vertex="1" parent="1">
                    <mxGeometry x="289.5" y="410" width="170" height="60" as="geometry"/>
                </mxCell>
                <mxCell id="ZUIKlt6inFAYDPj5CZig-2" value="Module 2 &#10;выбор билета&#10;&#10;" style="shape=module;align=left;spacingLeft=20;align=center;verticalAlign=top;fontStyle=1;fillColor=#666666;strokeColor=#d6b656;" vertex="1" parent="1">
                    <mxGeometry x="290" y="530" width="169.5" height="40" as="geometry"/>
                </mxCell>
                <mxCell id="ZUIKlt6inFAYDPj5CZig-3" value="Module 3&#10;выдача билета" style="shape=module;align=left;spacingLeft=20;align=center;verticalAlign=top;fillColor=#666666;strokeColor=#d6b656;fontStyle=1" vertex="1" parent="1">
                    <mxGeometry x="292.5" y="480" width="169" height="40" as="geometry"/>
                </mxCell>
                <mxCell id="ZUIKlt6inFAYDPj5CZig-4" value="Module 4&#10;Работа с БД" style="shape=module;align=left;spacingLeft=20;align=center;verticalAlign=top;fontStyle=1;fillColor=#666666;strokeColor=#d6b656;" vertex="1" parent="1">
                    <mxGeometry x="284" y="580" width="175" height="40" as="geometry"/>
                </mxCell>
                <mxCell id="ZUIKlt6inFAYDPj5CZig-5" value="Module 5&#10;Оплата" style="shape=module;align=left;spacingLeft=20;align=center;verticalAlign=top;fontStyle=1;fillColor=#666666;strokeColor=#d6b656;" vertex="1" parent="1">
                    <mxGeometry x="291.5" y="360" width="170" height="40" as="geometry"/>
                </mxCell>
                <mxCell id="ZUIKlt6inFAYDPj5CZig-6" value="Module 6&#10;UI" style="shape=module;align=left;spacingLeft=20;align=center;verticalAlign=top;fontStyle=1;fillColor=#666666;strokeColor=#d6b656;" vertex="1" parent="1">
                    <mxGeometry x="110" y="470" width="140" height="50" as="geometry"/>
                </mxCell>
                <mxCell id="ZUIKlt6inFAYDPj5CZig-7" value="Module 7&#10;Navigation" style="shape=module;align=left;spacingLeft=20;align=center;verticalAlign=top;fontStyle=1;fillColor=#666666;strokeColor=#d6b656;" vertex="1" parent="1">
                    <mxGeometry x="289" y="310" width="170" height="40" as="geometry"/>
                </mxCell>
                <mxCell id="ZUIKlt6inFAYDPj5CZig-9" value="" style="endArrow=block;dashed=1;endFill=0;endSize=12;html=1;rounded=0;fontSize=13;fillColor=#666666;exitX=0.65;exitY=0.02;exitDx=0;exitDy=0;exitPerimeter=0;entryX=0;entryY=0;entryDx=0;entryDy=15;entryPerimeter=0;" edge="1" parent="1" source="ZUIKlt6inFAYDPj5CZig-6" target="ZUIKlt6inFAYDPj5CZig-7">
                    <mxGeometry width="160" relative="1" as="geometry">
                        <mxPoint x="252.5" y="250" as="sourcePoint"/>
                        <mxPoint x="200" y="320" as="targetPoint"/>
                        <Array as="points">
                            <mxPoint x="200" y="470"/>
                            <mxPoint x="200" y="325"/>
                        </Array>
                    </mxGeometry>
                </mxCell>
                <mxCell id="ZUIKlt6inFAYDPj5CZig-10" value="" style="endArrow=block;dashed=1;endFill=0;endSize=12;html=1;rounded=0;fontSize=13;fillColor=#666666;" edge="1" parent="1">
                    <mxGeometry width="160" relative="1" as="geometry">
                        <mxPoint x="253.5" y="494.5" as="sourcePoint"/>
                        <mxPoint x="292.5" y="395" as="targetPoint"/>
                        <Array as="points">
                            <mxPoint x="273.5" y="495"/>
                            <mxPoint x="273.5" y="395"/>
                        </Array>
                    </mxGeometry>
                </mxCell>
                <mxCell id="ZUIKlt6inFAYDPj5CZig-11" value="" style="endArrow=none;html=1;rounded=0;fontSize=13;exitX=1;exitY=0.25;exitDx=0;exitDy=0;entryX=1;entryY=0.5;entryDx=0;entryDy=0;fillColor=#666666;" edge="1" source="ZUIKlt6inFAYDPj5CZig-2" target="ZUIKlt6inFAYDPj5CZig-5" parent="1">
                    <mxGeometry width="50" height="50" relative="1" as="geometry">
                        <mxPoint x="559" y="615" as="sourcePoint"/>
                        <mxPoint x="569" y="450" as="targetPoint"/>
                        <Array as="points">
                            <mxPoint x="499" y="540"/>
                            <mxPoint x="499" y="380"/>
                        </Array>
                    </mxGeometry>
                </mxCell>
                <mxCell id="ZUIKlt6inFAYDPj5CZig-12" value="" style="endArrow=block;dashed=1;endFill=0;endSize=12;html=1;rounded=0;fontSize=13;fillColor=#666666;exitX=0.643;exitY=1.04;exitDx=0;exitDy=0;entryX=0;entryY=0;entryDx=0;entryDy=15;entryPerimeter=0;exitPerimeter=0;" edge="1" target="ZUIKlt6inFAYDPj5CZig-2" parent="1" source="ZUIKlt6inFAYDPj5CZig-6">
                    <mxGeometry width="160" relative="1" as="geometry">
                        <mxPoint x="110" y="720" as="sourcePoint"/>
                        <mxPoint x="80" y="610" as="targetPoint"/>
                        <Array as="points">
                            <mxPoint x="200" y="545"/>
                        </Array>
                    </mxGeometry>
                </mxCell>
                <mxCell id="ZUIKlt6inFAYDPj5CZig-13" value="Module 5&#10;Работа с эл.почтой" style="shape=module;align=left;spacingLeft=20;align=center;verticalAlign=top;fontSize=13;fillColor=#666666;strokeColor=#d6b656;fontStyle=1" vertex="1" parent="1">
                    <mxGeometry x="284" y="700" width="175" height="50" as="geometry"/>
                </mxCell>
                <mxCell id="ZUIKlt6inFAYDPj5CZig-14" value="Module 6&#10;Работа с PDF" style="shape=module;align=left;spacingLeft=20;align=center;verticalAlign=top;fontSize=13;fillColor=#666666;strokeColor=#d6b656;fontStyle=1" vertex="1" parent="1">
                    <mxGeometry x="284.5" y="630" width="175" height="50" as="geometry"/>
                </mxCell>
                <mxCell id="1xD4JVcIePEV0LcMQXdf-26" value="" style="rounded=0;orthogonalLoop=1;jettySize=auto;html=1;endArrow=none;endFill=0;sketch=0;sourcePerimeterSpacing=0;targetPerimeterSpacing=0;exitX=1;exitY=0.75;exitDx=0;exitDy=0;" edge="1" parent="1" target="1xD4JVcIePEV0LcMQXdf-28" source="ZUIKlt6inFAYDPj5CZig-2">
                    <mxGeometry relative="1" as="geometry">
                        <mxPoint x="481.5" y="520" as="sourcePoint"/>
                        <Array as="points">
                            <mxPoint x="482" y="560"/>
                        </Array>
                    </mxGeometry>
                </mxCell>
                <mxCell id="1xD4JVcIePEV0LcMQXdf-27" value="" style="rounded=0;orthogonalLoop=1;jettySize=auto;html=1;endArrow=halfCircle;endFill=0;entryX=0.5;entryY=0.5;endSize=6;strokeWidth=1;sketch=0;exitX=1;exitY=0.5;exitDx=0;exitDy=0;" edge="1" parent="1" target="1xD4JVcIePEV0LcMQXdf-28" source="ZUIKlt6inFAYDPj5CZig-1">
                    <mxGeometry relative="1" as="geometry">
                        <mxPoint x="481.5" y="480" as="sourcePoint"/>
                        <Array as="points">
                            <mxPoint x="482" y="440"/>
                        </Array>
                    </mxGeometry>
                </mxCell>
                <mxCell id="1xD4JVcIePEV0LcMQXdf-28" value="" style="ellipse;whiteSpace=wrap;html=1;align=center;aspect=fixed;resizable=0;points=[];outlineConnect=0;sketch=0;rotation=-90;" vertex="1" parent="1">
                    <mxGeometry x="476.5" y="495" width="10" height="10" as="geometry"/>
                </mxCell>
                <mxCell id="1xD4JVcIePEV0LcMQXdf-22" value="" style="rounded=0;orthogonalLoop=1;jettySize=auto;html=1;endArrow=none;endFill=0;sketch=0;sourcePerimeterSpacing=0;targetPerimeterSpacing=0;" edge="1" target="1xD4JVcIePEV0LcMQXdf-24" parent="1">
                    <mxGeometry relative="1" as="geometry">
                        <mxPoint x="460" y="430" as="sourcePoint"/>
                        <Array as="points">
                            <mxPoint x="540" y="430"/>
                        </Array>
                    </mxGeometry>
                </mxCell>
                <mxCell id="1xD4JVcIePEV0LcMQXdf-23" value="" style="rounded=0;orthogonalLoop=1;jettySize=auto;html=1;endArrow=halfCircle;endFill=0;entryX=0.5;entryY=0.5;endSize=6;strokeWidth=1;sketch=0;exitX=1;exitY=0.75;exitDx=0;exitDy=0;" edge="1" target="1xD4JVcIePEV0LcMQXdf-24" parent="1" source="ZUIKlt6inFAYDPj5CZig-4">
                    <mxGeometry relative="1" as="geometry">
                        <mxPoint x="540" y="575" as="sourcePoint"/>
                        <Array as="points">
                            <mxPoint x="540" y="610"/>
                        </Array>
                    </mxGeometry>
                </mxCell>
                <mxCell id="1xD4JVcIePEV0LcMQXdf-24" value="" style="ellipse;whiteSpace=wrap;html=1;align=center;aspect=fixed;resizable=0;points=[];outlineConnect=0;sketch=0;rotation=90;" vertex="1" parent="1">
                    <mxGeometry x="535" y="550" width="10" height="10" as="geometry"/>
                </mxCell>
                <mxCell id="1xD4JVcIePEV0LcMQXdf-31" value="Navigation" style="swimlane;fontStyle=1;align=center;verticalAlign=top;childLayout=stackLayout;horizontal=1;startSize=26;horizontalStack=0;resizeParent=1;resizeParentMax=0;resizeLast=0;collapsible=1;marginBottom=0;" vertex="1" parent="1">
                    <mxGeometry x="476" y="960" width="200" height="110" as="geometry"/>
                </mxCell>
                <mxCell id="1xD4JVcIePEV0LcMQXdf-32" value="- Point A: type&#10;&#10;- Point B: type" style="text;strokeColor=none;fillColor=none;align=left;verticalAlign=top;spacingLeft=4;spacingRight=4;overflow=hidden;rotatable=0;points=[[0,0.5],[1,0.5]];portConstraint=eastwest;" vertex="1" parent="1xD4JVcIePEV0LcMQXdf-31">
                    <mxGeometry y="26" width="200" height="54" as="geometry"/>
                </mxCell>
                <mxCell id="1xD4JVcIePEV0LcMQXdf-33" value="" style="line;strokeWidth=1;fillColor=none;align=left;verticalAlign=middle;spacingTop=-1;spacingLeft=3;spacingRight=3;rotatable=0;labelPosition=right;points=[];portConstraint=eastwest;strokeColor=inherit;" vertex="1" parent="1xD4JVcIePEV0LcMQXdf-31">
                    <mxGeometry y="80" width="200" height="8" as="geometry"/>
                </mxCell>
                <mxCell id="1xD4JVcIePEV0LcMQXdf-34" value="+ navigate(Point A, Point B): List" style="text;strokeColor=none;fillColor=none;align=left;verticalAlign=top;spacingLeft=4;spacingRight=4;overflow=hidden;rotatable=0;points=[[0,0.5],[1,0.5]];portConstraint=eastwest;" vertex="1" parent="1xD4JVcIePEV0LcMQXdf-31">
                    <mxGeometry y="88" width="200" height="22" as="geometry"/>
                </mxCell>
                <mxCell id="1xD4JVcIePEV0LcMQXdf-35" value="Route" style="swimlane;fontStyle=1;align=center;verticalAlign=top;childLayout=stackLayout;horizontal=1;startSize=26;horizontalStack=0;resizeParent=1;resizeParentMax=0;resizeLast=0;collapsible=1;marginBottom=0;" vertex="1" parent="1">
                    <mxGeometry x="200" y="960" width="200" height="114" as="geometry"/>
                </mxCell>
                <mxCell id="1xD4JVcIePEV0LcMQXdf-36" value="- HashMap: type (time:station)&#10;&#10;- datatime" style="text;strokeColor=none;fillColor=none;align=left;verticalAlign=top;spacingLeft=4;spacingRight=4;overflow=hidden;rotatable=0;points=[[0,0.5],[1,0.5]];portConstraint=eastwest;" vertex="1" parent="1xD4JVcIePEV0LcMQXdf-35">
                    <mxGeometry y="26" width="200" height="54" as="geometry"/>
                </mxCell>
                <mxCell id="1xD4JVcIePEV0LcMQXdf-37" value="" style="line;strokeWidth=1;fillColor=none;align=left;verticalAlign=middle;spacingTop=-1;spacingLeft=3;spacingRight=3;rotatable=0;labelPosition=right;points=[];portConstraint=eastwest;strokeColor=inherit;" vertex="1" parent="1xD4JVcIePEV0LcMQXdf-35">
                    <mxGeometry y="80" width="200" height="8" as="geometry"/>
                </mxCell>
                <mxCell id="1xD4JVcIePEV0LcMQXdf-38" value="+ method(type): type" style="text;strokeColor=none;fillColor=none;align=left;verticalAlign=top;spacingLeft=4;spacingRight=4;overflow=hidden;rotatable=0;points=[[0,0.5],[1,0.5]];portConstraint=eastwest;" vertex="1" parent="1xD4JVcIePEV0LcMQXdf-35">
                    <mxGeometry y="88" width="200" height="26" as="geometry"/>
                </mxCell>
                <mxCell id="McWl1T_eJoPAd7LTKSis-1" value="" style="endArrow=block;dashed=1;endFill=0;endSize=12;html=1;rounded=0;fontSize=13;fillColor=#666666;exitX=0;exitY=0;exitDx=0;exitDy=15;entryX=0.371;entryY=0.98;entryDx=0;entryDy=0;entryPerimeter=0;exitPerimeter=0;" edge="1" parent="1" source="ZUIKlt6inFAYDPj5CZig-13" target="ZUIKlt6inFAYDPj5CZig-6">
                    <mxGeometry width="160" relative="1" as="geometry">
                        <mxPoint x="135.01999999999998" y="620" as="sourcePoint"/>
                        <mxPoint x="225" y="643" as="targetPoint"/>
                        <Array as="points">
                            <mxPoint x="162" y="715"/>
                        </Array>
                    </mxGeometry>
                </mxCell>
            </root>
        </mxGraphModel>
    </diagram>
</mxfile>